<svg width="37" height="37" viewBox="0 0 37 37" fill="none" xmlns="http://www.w3.org/2000/svg">
<path d="M12.6352 0.39188C16.1485 8.349 20.278 14.0855 24.839 16.7379C28.7221 18.9585 33.7145 17.6631 35.9334 13.8388C38.1523 9.95276 36.7963 5.01811 32.9133 2.79752C28.2906 0.145147 21.1409 -0.533367 12.6352 0.39188ZM6.2868 5.57326C2.28051 11.0014 0 15.9977 0 20.1305C0 23.6464 2.83523 26.4838 6.2868 26.4838C9.73838 26.4838 12.5736 23.6464 12.5736 20.1305C12.5736 15.9977 10.1698 10.9397 6.2868 5.57326ZM16.6415 18.0332C15.9019 24.7567 16.4566 30.2465 18.4906 33.8241C20.2164 36.8466 24.0994 37.8952 27.1195 36.1681C30.1397 34.4409 31.1258 30.5549 29.4001 27.5324C27.3045 23.9548 22.6818 20.7473 16.6415 18.0332Z" fill="#75D6FF"/>
</svg>
