<svg width="1438" height="800" viewBox="0 0 1438 800" fill="none" xmlns="http://www.w3.org/2000/svg">
<g clip-path="url(#clip0_58_213)">
<circle cx="1423.5" cy="221.5" r="39.5" fill="#C7C7C4"/>
<circle cx="3.5" cy="636.5" r="35.5" fill="#C7C7C4"/>
<ellipse cx="1390" cy="370.5" rx="24" ry="23.5" fill="#F2FCFA"/>
<ellipse cx="34" cy="549.5" rx="15" ry="14.5" fill="#F2FCFA"/>
<circle cx="65.5" cy="199.5" r="18.5" fill="#F7F7F7"/>
<circle cx="1355" cy="294" r="11" fill="#C2EBF5"/>
<circle cx="21" cy="398" r="9" fill="#C2EBF5"/>
<circle cx="-9.5" cy="304.5" r="48.5" fill="#4090F2"/>
<circle cx="2.5" cy="27.5" r="107.5" fill="#C2EBF5"/>
<circle cx="1414" cy="27" r="49" fill="#2982F0"/>
<path d="M1455 480C1401.98 480 1359 522.982 1359 576C1359 629.018 1401.98 672 1455 672C1508.02 672 1551 629.018 1551 576C1551 522.982 1508.02 480 1455 480ZM1455 637.42C1421.08 637.42 1393.58 609.923 1393.58 576C1393.58 542.077 1421.08 514.58 1455 514.58C1488.92 514.58 1516.42 542.077 1516.42 576C1516.42 609.923 1488.92 637.42 1455 637.42Z" fill="#C2EBF5"/>
</g>
<defs>
<clipPath id="clip0_58_213">
<rect width="1438" height="800" fill="white"/>
</clipPath>
</defs>
</svg>
