<svg width="1438" height="2033" viewBox="0 0 1438 2033" fill="none" xmlns="http://www.w3.org/2000/svg">
<g clip-path="url(#clip0_58_213)">
<circle cx="1423.5" cy="221.5" r="39.5" fill="#C7C7C4"/>
<ellipse cx="1383" cy="370.5" rx="24" ry="23.5" fill="#F2FCFA"/>
<circle cx="65.5" cy="199.5" r="18.5" fill="#F7F7F7"/>
<circle cx="1332" cy="272" r="11" fill="#C2EBF5"/>
<circle cx="-9.5" cy="304.5" r="48.5" fill="#4090F2"/>
<circle cx="2.5" cy="27.5" r="107.5" fill="#C2EBF5"/>
<path d="M1369.5 1757C1201.33 1757 1065 1887.74 1065 2049C1065 2210.26 1201.33 2341 1369.5 2341C1537.67 2341 1674 2210.26 1674 2049C1674 1887.74 1537.67 1757 1369.5 1757ZM1369.5 2235.82C1261.9 2235.82 1174.68 2152.18 1174.68 2049C1174.68 1945.82 1261.9 1862.18 1369.5 1862.18C1477.1 1862.18 1564.32 1945.82 1564.32 2049C1564.32 2152.18 1477.1 2235.82 1369.5 2235.82Z" fill="#C2EBF5"/>
<circle cx="1414" cy="27" r="49" fill="#2982F0"/>
</g>
<defs>
<clipPath id="clip0_58_213">
<rect width="1438" height="2033" fill="white"/>
</clipPath>
</defs>
</svg>
