<svg width="40" height="40" viewBox="0 0 40 40" fill="none" xmlns="http://www.w3.org/2000/svg">
<path d="M20.0002 3.33334C10.8335 3.33334 3.3335 10.8333 3.3335 20C3.3335 29.1667 10.8335 36.6667 20.0002 36.6667C29.1668 36.6667 36.6668 29.1667 36.6668 20C36.6668 10.8333 29.1668 3.33334 20.0002 3.33334ZM26.1668 23.8333C26.8335 24.5 26.8335 25.5 26.1668 26.1667C25.5002 26.8333 24.5002 26.8333 23.8335 26.1667L20.0002 22.3333L16.1668 26.1667C15.5002 26.8333 14.5002 26.8333 13.8335 26.1667C13.1668 25.5 13.1668 24.5 13.8335 23.8333L17.6668 20L13.8335 16.1667C13.1668 15.5 13.1668 14.5 13.8335 13.8333C14.5002 13.1667 15.5002 13.1667 16.1668 13.8333L20.0002 17.6667L23.8335 13.8333C24.5002 13.1667 25.5002 13.1667 26.1668 13.8333C26.8335 14.5 26.8335 15.5 26.1668 16.1667L22.3335 20L26.1668 23.8333Z" fill="#DC506C"/>
</svg>
