<svg width="40" height="40" viewBox="0 0 40 40" fill="none" xmlns="http://www.w3.org/2000/svg">
<path d="M28.3333 20V5.00004C28.3333 4.55801 28.1577 4.13409 27.8451 3.82153C27.5325 3.50897 27.1086 3.33337 26.6666 3.33337H4.99992C4.55789 3.33337 4.13397 3.50897 3.82141 3.82153C3.50885 4.13409 3.33325 4.55801 3.33325 5.00004V28.3334L9.99992 21.6667H26.6666C27.1086 21.6667 27.5325 21.4911 27.8451 21.1786C28.1577 20.866 28.3333 20.4421 28.3333 20ZM34.9999 10H31.6666V25H9.99992V28.3334C9.99992 28.7754 10.1755 29.1993 10.4881 29.5119C10.8006 29.8244 11.2246 30 11.6666 30H29.9999L36.6666 36.6667V11.6667C36.6666 11.2247 36.491 10.8008 36.1784 10.4882C35.8659 10.1756 35.4419 10 34.9999 10Z" fill="#2982F0"/>
</svg>
